<?xml version="1.0" encoding="utf-8"?>
<!-- Generator: Adobe Illustrator 23.0.6, SVG Export Plug-In . SVG Version: 6.00 Build 0)  -->
<svg version="1.1" id="Warstwa_1" xmlns="http://www.w3.org/2000/svg" xmlns:xlink="http://www.w3.org/1999/xlink" x="0px" y="0px"
	 viewBox="0 0 189.39 20.4" style="enable-background:new 0 0 189.39 20.4;" xml:space="preserve">
<g>
	<g>
		<path d="M9.77,20.38c-4.69,0-8.07-3.29-8.07-7.81c0-4.52,3.37-7.75,8.09-7.75c4.11,0,7.19,2.59,7.74,6.48h-4.91
			c-0.42-1.19-1.54-1.97-2.85-1.97c-1.77,0-3.03,1.35-3.03,3.25c0,1.91,1.27,3.28,3.03,3.28c1.35,0,2.45-0.83,2.86-2.13h4.95
			C17.02,17.71,13.89,20.38,9.77,20.38L9.77,20.38z"/>
		<path d="M29.29,5.21v4.61h-1.96c-1.78,0-2.53,0.78-2.53,2.65v7.44h-5.04V5.28h3.37l0.79,1.62c1.03-1.19,2.29-1.69,4.03-1.69H29.29
			z"/>
		<path d="M46.02,12.45c0,0.44-0.04,0.88-0.1,1.33H35.06c0.33,1.68,1.4,2.54,2.99,2.54c1.18,0,2.16-0.52,2.64-1.37h5.01
			c-1.03,3.34-3.99,5.42-7.66,5.42c-4.56,0-7.94-3.34-7.94-7.8c0-4.48,3.35-7.78,7.94-7.78C42.76,4.8,46.02,8.16,46.02,12.45
			L46.02,12.45z M35.15,11h5.91c-0.44-1.46-1.5-2.25-3.02-2.25C36.57,8.75,35.55,9.55,35.15,11z"/>
		<path d="M63.88,5.27v14.62h-3.89l-0.43-1.03c-1.2,0.97-2.71,1.53-4.41,1.53c-4.47,0-7.67-3.26-7.67-7.81
			c0-4.53,3.2-7.75,7.67-7.75c1.72,0,3.26,0.58,4.47,1.57l0.51-1.13L63.88,5.27z M59.09,12.59c0-1.9-1.39-3.32-3.27-3.32
			c-1.9,0-3.27,1.43-3.27,3.32c0,1.91,1.39,3.34,3.27,3.34S59.09,14.5,59.09,12.59z"/>
		<path d="M82.5,0v19.9h-3.73l-0.48-1.09c-1.19,1-2.71,1.58-4.41,1.58c-4.49,0-7.68-3.26-7.68-7.81c0-4.54,3.2-7.79,7.68-7.79
			c1.35,0,2.59,0.36,3.63,1.02V0H82.5z M77.83,12.59c0-1.91-1.39-3.35-3.27-3.35s-3.27,1.44-3.27,3.35c0,1.91,1.39,3.35,3.27,3.35
			S77.83,14.5,77.83,12.59z"/>
		<path d="M84.81,12.59c0-4.53,3.43-7.79,8.2-7.79c4.75,0,8.2,3.26,8.2,7.79c0,4.52-3.45,7.79-8.2,7.79
			C88.24,20.38,84.81,17.11,84.81,12.59z M96.16,12.59c0-1.92-1.32-3.27-3.15-3.27c-1.84,0-3.15,1.33-3.15,3.27s1.32,3.27,3.15,3.27
			C94.84,15.86,96.16,14.53,96.16,12.59z"/>
	</g>
	<g>
		<g>
			<path d="M107.9,15.92h0.85c0.23,2.19,1.98,3.45,4.74,3.45c2.79,0,4.64-1.31,4.64-3.34c0-2.53-2.38-2.98-4.79-3.39
				c-2.53-0.43-5.15-0.89-5.15-3.76c0-2.32,2.1-3.89,5.19-3.89c3.11,0,5.08,1.56,5.23,4.09h-0.83c-0.14-2.07-1.76-3.29-4.41-3.29
				c-2.61,0-4.33,1.23-4.33,3.07c0,2.19,2.11,2.55,4.5,2.95C116.1,12.24,119,12.76,119,16c0,2.52-2.21,4.18-5.52,4.18
				C110.19,20.19,108.14,18.58,107.9,15.92z"/>
			<path d="M130.16,19.08v0.83h-1.92c-2.72,0-4.38-1.68-4.38-4.45V6.07h-3.37V5.3h3.37V0.98h0.87V5.3h5.31v0.77h-5.31v9.36
				c0,2.31,1.31,3.66,3.59,3.66H130.16z"/>
			<path d="M132.94,13.77V5.28h0.87v8.39c0,3.5,2.03,5.67,5.3,5.67c3.27,0,5.29-2.18,5.29-5.67V5.28h0.87v8.49
				c0,3.91-2.38,6.42-6.16,6.42C135.33,20.19,132.94,17.67,132.94,13.77z"/>
			<path d="M163.95,0.11V19.9h-0.72l-0.12-3.73c-1.19,2.42-3.61,4.01-6.64,4.01c-4.27,0-7.46-3.28-7.46-7.6
				c0-4.33,3.18-7.6,7.46-7.6c3.01,0,5.42,1.57,6.62,3.97V0.11H163.95z M163.12,12.59c0-3.89-2.79-6.75-6.61-6.75
				c-3.78,0-6.62,2.89-6.62,6.75c0,3.84,2.84,6.75,6.62,6.75C160.33,19.34,163.12,16.48,163.12,12.59z"/>
			<path d="M169.07,0.52h1.27v1.51h-1.27V0.52z M169.27,5.28h0.87V19.9h-0.87V5.28z"/>
			<path d="M174.17,12.59c0-4.37,3.27-7.6,7.61-7.6c4.36,0,7.61,3.25,7.61,7.6c0,4.35-3.25,7.6-7.61,7.6
				C177.44,20.19,174.17,16.94,174.17,12.59z M188.51,12.59c0-3.87-2.86-6.75-6.73-6.75c-3.87,0-6.73,2.86-6.73,6.75
				c0,3.87,2.88,6.75,6.73,6.75C185.65,19.34,188.51,16.46,188.51,12.59z"/>
		</g>
	</g>
</g>
</svg>
